<?xml version="1.0" standalone="no"?>
<!DOCTYPE svg PUBLIC "-//W3C//DTD SVG 20010904//EN"
 "http://www.w3.org/TR/2001/REC-SVG-20010904/DTD/svg10.dtd">
<svg version="1.0" xmlns="http://www.w3.org/2000/svg"
 width="512.000000pt" height="512.000000pt" viewBox="0 0 512.000000 512.000000"
 preserveAspectRatio="xMidYMid meet">
<metadata>
Created by potrace 1.11, written by Peter Selinger 2001-2013
</metadata>
<g transform="translate(0.000000,512.000000) scale(0.100000,-0.100000)"
fill="#000000" stroke="none">
<path d="M2388 5105 c-2 -1 -37 -6 -78 -9 -240 -21 -515 -91 -755 -193 -434
-185 -842 -523 -1103 -913 -31 -47 -59 -87 -62 -90 -19 -19 -131 -238 -177
-345 -86 -199 -152 -441 -179 -655 -3 -25 -8 -56 -11 -70 -9 -47 -11 -425 -2
-505 24 -222 89 -516 139 -630 5 -11 18 -45 30 -75 45 -116 163 -341 242 -460
45 -69 85 -127 88 -130 16 -14 91 -110 86 -110 -3 0 54 -60 127 -133 309 -312
637 -518 1029 -647 86 -29 187 -57 233 -66 11 -2 31 -6 45 -9 201 -40 345 -53
571 -51 113 2 210 5 215 8 5 3 40 9 79 13 38 4 72 8 75 10 3 2 26 6 50 10 25
3 63 11 85 17 22 5 48 12 59 14 108 20 398 127 505 185 30 16 58 29 62 29 9 0
120 67 229 139 167 109 380 296 518 454 257 294 478 729 558 1102 42 196 56
315 59 525 3 214 -5 320 -41 514 -31 166 -95 378 -155 514 -16 34 -27 62 -25
62 7 0 -126 244 -171 314 -152 236 -333 439 -552 619 -222 182 -517 343 -801
437 -261 87 -516 127 -807 128 -89 0 -163 -1 -165 -3z m566 -1026 c31 -8 87
-58 278 -247 465 -459 477 -472 488 -511 8 -24 10 -361 8 -1061 l-3 -1025 -25
-49 c-31 -61 -93 -116 -157 -139 -46 -16 -110 -17 -998 -15 l-950 3 -49 25
c-58 30 -116 93 -139 151 -15 39 -17 152 -14 1358 l2 1316 23 45 c40 76 100
127 173 149 48 13 1313 14 1363 0z"/>
<path d="M2406 3913 c-4 -5 -177 -8 -384 -9 -397 0 -409 -2 -434 -47 -9 -17
-12 -223 -13 -897 0 -481 -4 -880 -7 -886 -4 -6 -4 -14 0 -18 4 -4 7 -180 7
-390 0 -424 1 -427 65 -443 17 -5 120 -8 230 -7 129 0 197 -3 193 -9 -4 -6 -1
-7 8 -1 8 5 315 9 715 9 683 1 701 1 721 21 12 10 26 30 30 44 7 19 11 1885 4
1922 0 4 -115 8 -253 10 -237 3 -256 4 -293 25 -76 41 -133 113 -150 191 -4
18 -7 131 -7 252 1 160 -2 219 -11 222 -7 2 -103 4 -214 3 -111 -1 -200 2
-197 7 6 10 0 10 -10 1z m109 -457 c44 -11 58 -73 25 -106 -19 -19 -33 -20
-337 -20 -175 0 -323 4 -329 8 -30 19 -38 82 -14 106 6 6 31 13 58 16 65 7
564 4 597 -4z m739 -442 c9 -8 16 -18 17 -22 0 -4 2 -16 4 -28 7 -34 -29 -64
-78 -65 -53 0 -1241 0 -1283 0 -16 1 -38 7 -48 14 -26 19 -28 68 -3 95 l20 22
678 0 c603 0 679 -2 693 -16z m-18 -420 c12 -3 26 -16 32 -29 21 -46 -5 -94
-52 -96 -133 -5 -1317 0 -1334 5 -20 7 -42 41 -42 65 0 5 9 20 21 35 l20 26
667 0 c367 0 677 -3 688 -6z m17 -442 c27 -30 30 -66 9 -92 l-20 -24 -681 0
c-742 -1 -702 -4 -716 56 -5 21 -1 33 19 53 l25 25 674 0 c626 0 675 -2 690
-18z m4 -438 c19 -19 23 -31 18 -52 -14 -60 27 -57 -715 -57 -749 0 -706 -3
-716 62 -4 25 1 35 21 51 25 20 38 20 697 20 l670 0 25 -24z"/>
</g>
</svg>
